<?xml version="1.0" standalone="no"?>
<!DOCTYPE svg PUBLIC "-//W3C//DTD SVG 20010904//EN"
 "http://www.w3.org/TR/2001/REC-SVG-20010904/DTD/svg10.dtd">
<svg version="1.0" xmlns="http://www.w3.org/2000/svg"
 width="700.000000pt" height="700.000000pt" viewBox="0 0 700.000000 700.000000"
 preserveAspectRatio="xMidYMid meet">
<metadata>
Created by potrace 1.11, written by Peter Selinger 2001-2013
</metadata>
<g transform="translate(0.000000,700.000000) scale(0.100000,-0.100000)"
fill="#000000" stroke="none">
<path d="M3345 6834 c-262 -19 -467 -49 -650 -95 -457 -115 -882 -324 -1255
-619 -141 -112 -424 -398 -534 -540 -388 -502 -617 -1062 -692 -1690 -21 -173
-23 -551 -5 -710 28 -241 83 -502 150 -708 36 -108 112 -305 116 -300 2 2 -12
48 -31 103 -121 346 -180 769 -155 1123 6 92 18 214 27 272 15 103 83 405 89
398 2 -2 -3 -46 -10 -97 -92 -615 9 -1271 284 -1846 162 -338 366 -621 642
-891 249 -243 488 -414 789 -564 352 -176 693 -277 1090 -321 113 -13 467 -16
565 -6 52 5 55 5 20 -4 -163 -40 -500 -63 -718 -49 -418 26 -783 124 -1149
306 -71 35 -128 61 -128 59 0 -6 150 -90 258 -144 349 -175 731 -286 1142
-332 157 -18 518 -15 685 5 672 82 1250 331 1765 764 110 92 317 302 408 414
813 999 987 2344 456 3523 -192 426 -497 832 -862 1147 -504 435 -1135 711
-1787 783 -135 15 -422 26 -510 19z m100 -564 c158 -14 344 -44 480 -78 l110
-28 3 -63 c3 -58 1 -63 -15 -57 -10 4 -63 21 -118 37 -607 175 -1276 144
-1865 -88 -236 -93 -534 -261 -720 -406 -36 -28 -59 -43 -51 -34 27 33 192
160 319 244 153 102 439 245 617 308 387 139 839 199 1240 165z m-800 -202
c-439 -152 -794 -380 -1112 -712 -109 -115 -113 -118 -78 -61 93 148 275 368
407 491 50 47 88 70 164 104 166 73 348 129 589 183 40 9 61 6 30 -5z m950
-142 c250 -39 477 -112 710 -226 306 -150 554 -340 765 -585 l81 -94 -3 -87
-3 -86 -50 73 c-81 119 -165 217 -291 340 -507 493 -1183 725 -1910 654 l-49
-4 45 9 c150 32 518 35 705 6z m-772 -23 c-7 -2 -19 -2 -25 0 -7 3 -2 5 12 5
14 0 19 -2 13 -5z m-93 -348 c0 -25 -5 -45 -10 -45 -28 0 -329 -119 -445 -175
-469 -228 -848 -609 -1086 -1090 -38 -77 -69 -136 -69 -132 0 5 16 47 36 95
235 568 704 1043 1269 1282 74 32 274 104 303 110 1 0 2 -20 2 -45z m-1480
-18 c0 -2 -12 -14 -27 -28 l-28 -24 24 28 c23 25 31 32 31 24z m2799 -89 c614
-243 1073 -775 1217 -1406 68 -300 53 -586 -47 -886 -187 -565 -654 -994
-1214 -1116 -52 -11 -97 -20 -100 -20 -3 0 -5 81 -5 179 l0 179 -112 0 c-135
0 -471 56 -610 102 -387 129 -659 434 -732 820 -20 103 -21 295 -2 392 69 360
298 647 633 794 43 18 72 34 64 34 -21 0 -195 -76 -253 -112 -376 -227 -598
-613 -598 -1037 0 -307 117 -622 324 -869 40 -48 83 -96 94 -106 12 -11 22
-25 22 -31 0 -19 131 -138 213 -194 416 -280 978 -337 1467 -149 145 56 316
155 445 258 63 51 222 211 267 270 l27 35 1 -132 0 -133 -67 -71 c-88 -93
-226 -208 -338 -282 -100 -66 -292 -162 -400 -200 -67 -24 -232 -57 -282 -57
l-24 0 3 -194 3 -195 -25 -4 c-14 -3 -71 -11 -127 -18 -78 -10 -103 -17 -103
-27 0 -13 -24 -14 -162 -9 -435 16 -857 145 -1188 362 -174 115 -481 403 -601
565 -299 403 -439 913 -388 1411 67 660 469 1263 1027 1543 112 56 265 110
396 138 87 19 132 22 331 23 248 0 318 -9 498 -62 l87 -26 0 -174 c0 -95 -2
-173 -5 -173 -3 0 -22 8 -43 19 -59 30 -224 80 -325 98 -127 23 -371 23 -497
0 -370 -68 -678 -270 -935 -612 -202 -269 -293 -463 -356 -765 -26 -122 -37
-443 -20 -586 43 -369 213 -779 418 -1012 l38 -43 98 45 98 46 -54 77 c-165
236 -263 483 -302 761 -25 174 -17 429 19 598 70 332 220 621 442 853 138 144
248 226 409 306 196 97 332 135 557 156 202 20 438 -13 636 -88 l72 -28 0
-128 0 -127 -40 20 c-68 34 -58 22 13 -18 100 -55 178 -116 263 -204 132 -138
208 -276 262 -477 23 -85 26 -115 26 -266 0 -152 -3 -180 -27 -267 -30 -113
-87 -239 -148 -329 -59 -87 -182 -213 -273 -279 l-76 -55 0 -72 0 -72 53 15
c186 55 375 172 539 334 94 93 126 148 181 315 61 182 81 399 53 570 -9 55
-21 159 -26 230 -16 212 -46 343 -116 507 -40 93 -117 225 -175 297 -37 48
-39 53 -39 124 l0 74 -69 68 c-123 120 -260 214 -448 309 l-93 46 0 94 0 94
38 -10 c20 -6 70 -23 111 -40z m-2938 -1375 c-12 -20 -14 -14 -5 12 4 9 9 14
11 11 3 -2 0 -13 -6 -23z m5566 -1289 c-326 -809 -923 -1428 -1717 -1781 -113
-50 -421 -163 -446 -163 -2 0 -4 28 -4 63 l0 62 125 37 c196 59 306 102 510
203 329 162 590 349 850 610 295 294 522 622 665 959 29 69 55 124 57 122 2
-1 -16 -52 -40 -112z m-617 -226 c-45 -209 -139 -480 -222 -640 -35 -68 -57
-94 -151 -179 -170 -155 -353 -290 -502 -373 -58 -32 -58 -32 89 94 251 212
490 519 641 820 50 100 126 280 146 348 22 75 22 36 -1 -70z"/>
<path d="M3513 4573 c15 -2 39 -2 55 0 15 2 2 4 -28 4 -30 0 -43 -2 -27 -4z"/>
<path d="M3648 4563 c7 -3 16 -2 19 1 4 3 -2 6 -13 5 -11 0 -14 -3 -6 -6z"/>
<path d="M3708 4553 c7 -3 16 -2 19 1 4 3 -2 6 -13 5 -11 0 -14 -3 -6 -6z"/>
<path d="M3890 4500 c8 -5 20 -10 25 -10 6 0 3 5 -5 10 -8 5 -19 10 -25 10 -5
0 -3 -5 5 -10z"/>
<path d="M480 2155 c0 -5 5 -17 10 -25 5 -8 10 -10 10 -5 0 6 -5 17 -10 25 -5
8 -10 11 -10 5z"/>
</g>
</svg>
