<?xml version="1.0" encoding="iso-8859-1"?>
<!-- Generator: Adobe Illustrator 23.0.4, SVG Export Plug-In . SVG Version: 6.00 Build 0)  -->
<svg version="1.1" xmlns="http://www.w3.org/2000/svg" xmlns:xlink="http://www.w3.org/1999/xlink" x="0px" y="0px"
	 viewBox="0 0 4729.457 4766.605" style="enable-background:new 0 0 4729.457 4766.605;" xml:space="preserve">
<g id="Layer_1_1_">
	<g id="Pink">
		
			<linearGradient id="SVGID_1_" gradientUnits="userSpaceOnUse" x1="-2167.7007" y1="1458.7559" x2="2036.5366" y2="2317.9109" gradientTransform="matrix(1 0 0 -1 0 4768)">
			<stop  offset="0" style="stop-color:#92479B"/>
			<stop  offset="0.0994" style="stop-color:#8D4594"/>
			<stop  offset="0.2334" style="stop-color:#834389"/>
			<stop  offset="0.3871" style="stop-color:#734077"/>
			<stop  offset="0.5555" style="stop-color:#5B385E"/>
			<stop  offset="0.736" style="stop-color:#3E2B40"/>
			<stop  offset="0.9236" style="stop-color:#1A151B"/>
			<stop  offset="1" style="stop-color:#010101"/>
		</linearGradient>
		<path style="fill:url(#SVGID_1_);" d="M4664.257,1850.951c-296.8-1282.7-1567.5-2084.2-2838.3-1790.2s-2060.3,1572.2-1763.5,2855
			c50.8,219.6,130.2,425.1,233.2,613.4c-401.1-785.2-277-1766.2,374.7-2418c811.2-811.2,2132.5-805,2951.3,13.8
			s825,2140.1,13.8,2951.3c-720.5,720.5-1843.4,796.1-2659.2,230.3c535.5,393.4,1230,560,1924.5,399.3
			C4171.557,4411.951,4961.057,3133.751,4664.257,1850.951z"/>
		
			<linearGradient id="SVGID_2_" gradientUnits="userSpaceOnUse" x1="-6162.6426" y1="673.6246" x2="3033.5356" y2="2552.9058" gradientTransform="matrix(-0.9997 -0.024 -0.024 0.9997 4777.8721 25.9037)">
			<stop  offset="0" style="stop-color:#92479B"/>
			<stop  offset="0.1112" style="stop-color:#8E4696"/>
			<stop  offset="0.23" style="stop-color:#87448C"/>
			<stop  offset="0.3525" style="stop-color:#7A427F"/>
			<stop  offset="0.4775" style="stop-color:#683D6C"/>
			<stop  offset="0.6044" style="stop-color:#513454"/>
			<stop  offset="0.7329" style="stop-color:#372738"/>
			<stop  offset="0.8605" style="stop-color:#151116"/>
			<stop  offset="0.9028" style="stop-color:#010101"/>
		</linearGradient>
		<path style="fill:url(#SVGID_2_);" d="M168.757,2835.951c252.3,1223.5,1439.4,2012.6,2651.5,1762.699
			c1212.1-250,1990.1-1444.4,1737.801-2667.9c-43.2-209.4-113.8-406.1-207.2-587.1c362.5,753.9,222.5,1681.6-410.5,2284.9
			c-787.9,751-2041.1,715-2799.1-80.3s-733.8-2048.8,54-2799.7c699.8-667,1766.7-713.2,2527.6-158
			c-499-385.4-1153.9-559.1-1816.3-422.5C694.457,418.051-83.643,1612.451,168.757,2835.951z"/>
		
			<linearGradient id="SVGID_3_" gradientUnits="userSpaceOnUse" x1="338.7106" y1="1627.6492" x2="3962.353" y2="2982.5022" gradientTransform="matrix(1 0 0 -1 0 4768)">
			<stop  offset="0" style="stop-color:#D04A9A"/>
			<stop  offset="1" style="stop-color:#77287A"/>
		</linearGradient>
		<path style="fill:url(#SVGID_3_);" d="M2363.357,449.551c-1068,0-1933.8,865.8-1933.8,1933.8s865.8,1933.8,1933.8,1933.8
			s1933.8-865.8,1933.8-1933.8S3431.357,449.551,2363.357,449.551z M2363.357,3151.951c-424.5,0-768.6-344.1-768.6-768.6
			s344.1-768.6,768.6-768.6s768.6,344.1,768.6,768.6S2787.857,3151.951,2363.357,3151.951z"/>
		
			<linearGradient id="SVGID_4_" gradientUnits="userSpaceOnUse" x1="401.285" y1="2229.5835" x2="4729.457" y2="2229.5835" gradientTransform="matrix(1 0 0 -1 0 4768)">
			<stop  offset="0" style="stop-color:#92479B"/>
			<stop  offset="1" style="stop-color:#BD4D9C"/>
		</linearGradient>
		<path style="fill:url(#SVGID_4_);" d="M4634.257,2865.951c-105.8,261.8-274.2,504.8-471.6,705.5
			c-206.3,209.7-452.6,379.7-722.6,496.7c-271.3,117.5-564.7,182-860.4,187.4c-258.1,4.7-520.4-34.6-764.2-120.4
			c-333.5-117.3-628.2-335.7-836.8-621.2c-281.2-384.9-395.8-875.1-309.4-1343.1c36.8-199.6,108.9-390.6,224.7-558.5
			c298-431.8,839.2-654.4,1354.3-548.9c297.4,60.9,558.9,240.5,704.4,509c50.2,92.7,85.6,193.5,104.1,297.3
			c16.1,90.1,4.6,179,33.9,264.5c37.1,108.3,49.3,225.1,36.1,338.8c-45.4,390.9-393.2,690.1-786.1,678.7
			c-388.6-11.3-715.7-324.2-743.9-712c-28.1-388.1,249.2-746.3,633.2-813.4c214-37.4,438.4,18.7,609.1,153.3
			c-194.8-345.8-618.4-474.8-984.4-351.2c-282.8,95.5-501.2,333-573,621.9c-125.4,505.5,166.7,1040.8,661.7,1204.899
			c177.6,58.9,372.4,71,556.5,39.8c695.2-117.8,1108.4-743.5,960.2-1464.9c-104.6-509.3-481.9-933.4-984.5-1071.6
			c-509.2-139.9-1070.4-17.7-1476.8,318.8c-309.4,256.2-505.5,617-571.2,1010.7c-87,521.5,44.4,1067.1,359.7,1491.9
			c267,359.6,655.9,618.6,1090.6,726c332.3,82.1,680.9,91.4,1017.1,27c388-74.3,754.4-248.4,1058.9-499.7
			c260-214.5,472.7-486.7,617.4-791.1c67.5-141.9,120.2-290.8,158.2-443.3C4702.957,2689.751,4671.157,2779.051,4634.257,2865.951z"
			/>
		
			<linearGradient id="SVGID_5_" gradientUnits="userSpaceOnUse" x1="1339.5449" y1="2601.6035" x2="3904.5627" y2="2601.6035" gradientTransform="matrix(1 0 0 -1 0 4768)">
			<stop  offset="0" style="stop-color:#BD4D9C"/>
			<stop  offset="1" style="stop-color:#D984B7"/>
		</linearGradient>
		<path style="fill:url(#SVGID_5_);" d="M3904.157,2252.551c-6.9-358.1-156.9-712.2-382.6-987c-259.2-315.6-628.2-533.5-1030-606.5
			c-258.8-47-526-32.5-778.9,40.1c422.7-103.5,874.6-41.5,1251.5,177c331.1,192,590.5,495.7,724.7,854.3
			c170.1,454.3,105.9,964.6-215.4,1340c-155.7,181.9-361.2,316.9-589.8,387.9c-523.7,162.6-1106.4-126.6-1252.6-667
			c-11.5-42.4-19.8-85.5-24-129.2c-2.8-28.8-3.9-57.6-3.2-86.5c1.9-86.8-13.9-172.2-6.3-259.7c26.4-303.2,237.6-568.8,526.9-663.3
			c286.9-93.7,610-6.6,811.3,217.9c213.4,238,256.5,594.4,105,876.3c-72.4,134.8-185.3,246.5-320.8,317.6
			c381.4-164.5,545.2-612.6,385.6-988.2c-112.4-264.4-357.5-460.9-640.2-512.9c-410.7-75.5-828.2,168.4-1015.8,531.2
			c-203.4,393.5-112.5,865.2,171.9,1195.8c425.6,494.7,1139.5,528.3,1655.6,176.1c345.6-235.8,576-620.8,619.7-1036.8
			C3902.957,2370.951,3905.657,2311.651,3904.157,2252.551z"/>
		
			<linearGradient id="SVGID_6_" gradientUnits="userSpaceOnUse" x1="606.9566" y1="2600.8447" x2="3789.9478" y2="2600.8447" gradientTransform="matrix(1 0 0 -1 0 4768)">
			<stop  offset="0" style="stop-color:#BD4D9C"/>
			<stop  offset="1" style="stop-color:#92479B"/>
		</linearGradient>
		<path style="fill:url(#SVGID_6_);" d="M3789.757,2241.651c-5-389.8-172.7-768.4-457.5-1034.4c-211.4-197.4-476.5-319.4-760.1-367
			c-243.5-40.8-494.9-29.2-733.5,34.1c-270.5,71.8-522.5,209.9-728.6,399.3c-176.2,161.9-317.6,360.3-412.4,579.9
			c-37.6,87-67.8,177.2-90.7,269.1c124.3-426.6,412.8-791.9,801.4-1008c334.6-186.1,729.7-252.5,1106.4-183.3
			c541.5,99.4,984.3,503.4,1080.4,1059.4c32.6,188.5,22.1,384.2-31.3,567.9c-153.7,529.7-754.5,860.7-1279.1,649.8
			c-62.8-25.2-114.1-67.4-173.2-98.8c-67-35.6-136-58.2-198.7-103.6c-66.2-47.9-124.6-106.4-172.5-172.6
			c-186.8-258.1-192.7-616-14.3-880c172.7-255.7,489.9-385.1,792.3-323.3c297.4,60.9,537.2,300.7,598.1,598.1
			c35.8,174.8,9.2,360.3-75.2,517.6c112-156.7,145.8-360.7,107.8-548c-64.3-316.8-328.6-550.7-645-592.1
			c-440.4-57.7-861.2,238.9-957,670.6c-66.9,301.2,9.7,626,204.6,865.1c240.1,294.6,625.2,416.7,996.6,364.9
			C3377.257,3418.851,3800.257,2855.751,3789.757,2241.651z"/>
		
			<linearGradient id="SVGID_7_" gradientUnits="userSpaceOnUse" x1="893.3873" y1="2230.8347" x2="3704.1567" y2="2230.8347" gradientTransform="matrix(1 0 0 -1 0 4768)">
			<stop  offset="0" style="stop-color:#CA76B0"/>
			<stop  offset="1" style="stop-color:#9B499C"/>
		</linearGradient>
		<path style="fill:url(#SVGID_7_);" d="M3536.857,3666.551c-276.7,188.5-623,281.2-956.2,274.1c-350.3-7.4-695.4-125.5-974.4-337.9
			c-278.9-212.4-487-508.4-550.2-857.4c-85.9-474.7,109.7-993.7,511.5-1269.2c429.9-294.7,1073.7-197.6,1358.5,253.2
			c59.2,93.6,72.5,197.4,116.1,293.3c129.3,283.9,118.4,602.6-86.2,850.1c-87,105.3-201.8,186.6-330.2,233.3
			c603.1-155.1,862.1-904.5,575.1-1431c-277.3-508.8-941.9-719.4-1473.7-509.3c-283.8,112.1-513.9,336.9-659.3,602.6
			c-284,519-217.2,1178.9,170.6,1625.7c264,304.2,634.7,508.9,1031.9,573.2c403.2,65.3,824.2-15.5,1172.8-228.9
			c93-56.9,180.3-122.9,261-196.2C3650.757,3586.851,3594.857,3628.451,3536.857,3666.551z"/>
		
			<linearGradient id="SVGID_8_" gradientUnits="userSpaceOnUse" x1="1980.3237" y1="3705.793" x2="3266.6003" y2="866.0411" gradientTransform="matrix(1 0 0 -1 0 4768)">
			<stop  offset="1.248265e-07" style="stop-color:#92479B"/>
			<stop  offset="1" style="stop-color:#BD4D9C"/>
		</linearGradient>
		<path style="fill:url(#SVGID_8_);" d="M4112.357,2179.751c-4.5-327.3-99.4-655.2-260.4-939.3c-152.9-270-369-502.7-627.2-674.8
			c-188.9-125.9-399.5-217.6-619.8-272.5c550.8,160.5,1010.8,558.8,1242.6,1084.3c191.4,433.9,219.8,942,60.7,1390.7
			c-241.6,681.5-970.4,1108.7-1683.9,967.7c-632.9-125-1076.4-747.8-910-1392c57.7-223.2,200.9-418,401.4-532.8
			c32.8-18.8,66.9-35.4,101.9-49.6c55.4-22.6,114.8-29.1,170.1-49c51.6-18.6,98.1-48.4,151.5-64.7c101.2-30.8,208.7-40.2,313.7-28
			c349,40.6,633.3,324.8,673.8,673.8c40.8,351.2-171,694.1-504.2,813.5c-334.7,119.9-717.6-12.2-908.2-311.8
			c-95.3-149.8-135.6-330.8-113.8-507c-104.7,361.2,91,759.3,438.9,899c514.8,206.7,1085-159.1,1160.6-695.1
			c62.4-442.4-188.8-888.8-602-1060.5c-315.2-130.9-690.6-100.9-988,60.9c-793.7,431.8-785.4,1579.1-125.7,2140.1
			c551.1,468.5,1401.8,422.3,1962.8-0.7c408.8-308.2,632.2-781.4,662.3-1285.9
			C4112.757,2290.751,4113.957,2235.151,4112.357,2179.751z"/>
		
			<linearGradient id="SVGID_9_" gradientUnits="userSpaceOnUse" x1="633.5569" y1="2599.1914" x2="4181.4756" y2="2599.1914" gradientTransform="matrix(1 0 0 -1 0 4768)">
			<stop  offset="0" style="stop-color:#CA76B0"/>
			<stop  offset="1" style="stop-color:#9B499C"/>
		</linearGradient>
		<path style="fill:url(#SVGID_9_);" d="M4181.457,2247.951c-3.4-393.4-139-780.3-385.8-1087.1
			c-159.1-197.8-362.7-363.1-583.2-487.8c-241.2-136.4-508.3-225.6-783.3-260.6c-278.7-35.5-563.6-15.6-834.6,58.5
			c-263.3,72-511.3,195.7-727.6,362.1c-82.8,63.7-160.8,134.1-233.4,209.3c440-421.5,1050.1-634.3,1656.8-570.7
			c508.6,53.3,999,300.6,1330.7,692.6c498.5,589.2,499,1490.5-14,2072.1c-453.7,514.3-1262.2,586-1765.6,93.8
			c-176.5-172.5-280-409.3-279.4-656.4c0.1-40.3,3-80.7,8.5-120.7c8.1-58.3,24.2-111,24.2-169.8c0-37.3,2.7-74.7,8-111.6
			c13.5-92.6,44.1-182.5,89.9-264.1c173.6-309.3,548.5-462.2,889-361.5c338.7,100.1,569.6,430.1,549.1,782.4
			c-20.4,351-287.4,651.3-634,711.9c-200.8,35.1-411.3-11.8-577.7-129.8c234.6,266.5,638.7,342.1,955.2,182.2
			c321-162.2,503.5-535,467.7-888.7c-34.2-338.2-257.7-619.4-559.2-762.2c-397.6-188.3-884.2-109.3-1198,198.5
			c-340,333.5-460.8,852.1-305.7,1301.3c97.5,282.2,294.9,511.4,544.6,670.6c548.7,349.8,1284.6,297.1,1773.3-134
			c337.4-297.6,545.3-735.4,579.4-1182.1C4180.257,2346.951,4181.657,2297.451,4181.457,2247.951z"/>
		
			<linearGradient id="SVGID_10_" gradientUnits="userSpaceOnUse" x1="578.5027" y1="2597.3259" x2="3655.7439" y2="2597.3259" gradientTransform="matrix(1 0 0 -1 0 4768)">
			<stop  offset="1.248265e-07" style="stop-color:#7C439A"/>
			<stop  offset="1" style="stop-color:#BD4D9C"/>
		</linearGradient>
		<path style="fill:url(#SVGID_10_);" d="M3650.157,2143.751c-39.1-392.9-269.9-761.4-588.6-988.9
			c-322-229.9-731.1-318.9-1118.8-238.9c-263.2,54.3-514.5,178.2-722.8,347.1c-243.7,197.7-431.5,461.5-538.6,756.5
			c-89.2,245.7-121.3,510.7-92.7,770.5c10.7,97.5,30.1,194,57.2,288.3c-99.8-407.6-46.2-843.4,155-1212.2
			c180.2-330.5,470.1-595,817.4-740.7c358.2-150.2,760.2-162.3,1115.3,7.5c674,322.2,1026,1286.2,371.1,1835.5
			c-136.9,114.8-311.1,196.6-490.3,214.9c-118,12.1-217.4-17.2-329-35.2c-292.3-47.3-541-216.2-644.9-503
			c-101.8-281.2-27.2-604.2,187-812.6c103.9-101.1,236.1-171.8,378.1-201.5c-275.3,46.5-516.6,240.1-631.9,492.7
			c-109.6,240.2-97.2,510.5,13.6,746.6c193.6,412.3,650.1,650,1097.4,567.6C3281.657,3327.851,3710.057,2745.351,3650.157,2143.751z
			"/>
	</g>
</g>
<g id="Layer_1">
</g>
</svg>
